<?xml version="1.0" encoding="UTF-8"?>
<!DOCTYPE svg PUBLIC "-//W3C//DTD SVG 1.1//EN" "http://www.w3.org/Graphics/SVG/1.1/DTD/svg11.dtd">
<!-- Creator: CorelDRAW X7 -->
<svg xmlns="http://www.w3.org/2000/svg" xml:space="preserve" width="22.9997mm" height="21.1966mm" version="1.1" style="shape-rendering:geometricPrecision; text-rendering:geometricPrecision; image-rendering:optimizeQuality; fill-rule:evenodd; clip-rule:evenodd"
viewBox="0 0 482 444"
 xmlns:xlink="http://www.w3.org/1999/xlink">
 <defs>
  <style type="text/css">
   <![CDATA[
    .fil3 {fill:#FEFEFE}
    .fil4 {fill:#E9F4FC}
    .fil2 {fill:#009639}
    .fil1 {fill:#80D990}
    .fil5 {fill:#C5FACF}
    .fil0 {fill:#EB6631}
   ]]>
  </style>
 </defs>
 <g id="Слой_x0020_1">
  <metadata id="CorelCorpID_0Corel-Layer"/>
  <g id="_2369808979056">
   <path class="fil0" d="M373 136c0,4 -4,8 -9,8 -4,0 -8,-4 -8,-8 0,-5 4,-8 8,-8 5,0 8,3 9,8z"/>
   <path class="fil0" d="M135 182c0,5 -4,9 -8,9 -5,0 -8,-4 -8,-9 0,-4 3,-8 8,-8 4,0 8,4 8,8z"/>
   <path class="fil0" d="M66 101c0,7 -5,13 -12,13 -7,0 -13,-6 -13,-13 0,-7 6,-12 13,-12 7,0 12,5 12,12z"/>
   <path class="fil0" d="M147 27c0,11 -9,20 -20,20 -11,0 -21,-9 -21,-20 0,-12 10,-21 21,-21 11,0 20,9 20,21z"/>
   <path class="fil0" d="M437 90c0,7 -6,13 -13,13 -7,0 -13,-6 -13,-13 0,-7 6,-13 13,-13 7,0 13,6 13,13z"/>
   <path class="fil0" d="M389 27c0,10 -9,19 -19,19 -10,0 -19,-9 -19,-19 0,-11 9,-19 19,-19 10,0 19,8 19,19z"/>
   <path class="fil1" d="M127 320l68 0 0 -148 -25 34c-8,10 -16,19 -25,27 -11,11 -18,27 -18,44l0 43z"/>
   <path class="fil1" d="M364 320l-68 0 0 -148 26 34c7,10 15,19 24,27 12,11 18,27 18,44l0 43z"/>
   <path class="fil2" d="M304 312l52 0 0 -35c0,-15 -5,-28 -16,-38 -8,-9 -17,-18 -25,-28l-11 -15 0 116zm68 16l-83 0 0 -180 39 54c7,9 15,18 23,25 14,13 21,31 21,50l0 51z"/>
   <path class="fil2" d="M135 312l52 0 0 -116 -11 15c-8,10 -17,19 -25,28 -10,10 -16,23 -16,38l0 35zm68 16l-84 0 0 -51c0,-19 8,-37 21,-50 8,-7 16,-16 23,-25l40 -54 0 180z"/>
   <path class="fil3" d="M302 320l-111 0 0 -231c0,-27 12,-53 33,-69l10 -8c8,-6 17,-6 24,0l11 8c21,16 33,41 33,67l0 233z"/>
   <path class="fil4" d="M224 20l10 -8c4,-3 8,-4 12,-4l0 0c-4,0 -8,1 -12,4l-10 8z"/>
   <path class="fil5" d="M215 320l-12 0 -12 0 0 -231c0,-27 12,-53 33,-69l0 0 10 -8c4,-3 8,-4 12,-4 5,0 9,1 12,4l1 0 -10 8c-21,16 -34,42 -34,69l0 231z"/>
   <path class="fil2" d="M310 328l-127 0 0 -239c0,-30 14,-58 37,-76l10 -7c10,-8 23,-8 33,0l11 8 -9 13 -11 -9c-5,-3 -11,-3 -15,0l-10 8c-19,15 -31,38 -31,63l0 223 96 0 0 -225c0,-11 -2,-23 -7,-33l14 -7c6,12 9,26 9,40l0 241z"/>
   <path class="fil2" d="M280 43c-1,-2 -3,-4 -5,-6l12 -10c2,2 4,4 6,6l-13 10z"/>
   <path class="fil1" d="M266 116c0,11 -9,20 -20,20 -10,0 -19,-9 -19,-20 0,-11 9,-20 19,-20 11,0 20,9 20,20z"/>
   <path class="fil1" d="M266 184c0,11 -9,20 -20,20 -10,0 -19,-9 -19,-20 0,-10 9,-19 19,-19 11,0 20,9 20,19z"/>
   <path class="fil1" d="M266 253c0,11 -9,19 -20,19 -10,0 -19,-8 -19,-19 0,-11 9,-20 19,-20 11,0 20,9 20,20z"/>
   <path class="fil2" d="M246 104c-6,0 -11,6 -11,12 0,7 5,12 11,12 7,0 12,-5 12,-12 0,-6 -5,-12 -12,-12zm0 40c-15,0 -27,-13 -27,-28 0,-15 12,-27 27,-27 16,0 28,12 28,27 0,15 -12,28 -28,28z"/>
   <path class="fil2" d="M246 173c-6,0 -11,5 -11,11 0,7 5,12 11,12 7,0 12,-5 12,-12 0,-6 -5,-11 -12,-11zm0 39c-15,0 -27,-12 -27,-28 0,-15 12,-27 27,-27 16,0 28,12 28,27 0,16 -12,28 -28,28z"/>
   <path class="fil2" d="M246 241c-6,0 -11,5 -11,12 0,6 5,11 11,11 7,0 12,-5 12,-11 0,-7 -5,-12 -12,-12zm0 39c-15,0 -27,-12 -27,-27 0,-15 12,-28 27,-28 16,0 28,13 28,28 0,15 -12,27 -28,27z"/>
   <path class="fil3" d="M474 325c0,10 -8,18 -18,18 -10,0 -18,-8 -18,-18 0,-10 8,-18 18,-18 10,0 18,8 18,18z"/>
   <path class="fil3" d="M415 262c0,7 -6,13 -13,13 -7,0 -12,-6 -12,-13 0,-7 5,-12 12,-12 7,0 13,5 13,12z"/>
   <path class="fil3" d="M40 341c0,9 -7,16 -16,16 -9,0 -16,-7 -16,-16 0,-9 7,-16 16,-16 9,0 16,7 16,16z"/>
   <path class="fil3" d="M94 267c0,11 -9,20 -20,20 -12,0 -21,-9 -21,-20 0,-12 9,-21 21,-21 11,0 20,9 20,21z"/>
   <path class="fil3" d="M463 444c0,-14 -6,-26 -17,-34 5,-6 9,-15 9,-24 0,-22 -19,-41 -41,-41 -23,0 -41,19 -41,41l0 2c-9,1 -17,7 -21,14 -6,-4 -14,-7 -22,-7 -11,0 -21,5 -28,13 -5,-5 -11,-8 -19,-8 -1,0 -3,1 -4,1 0,-2 0,-3 0,-4 0,-15 -11,-26 -25,-26 -14,0 -26,11 -26,26 0,1 0,2 0,3 -3,-1 -7,-2 -12,-2 -12,0 -22,7 -28,17 -3,-3 -8,-6 -13,-6 -7,0 -12,3 -16,8 -2,-14 -14,-24 -29,-24 -1,0 -2,0 -4,0 2,-4 2,-8 2,-13 0,-23 -18,-42 -42,-42 -23,0 -42,19 -42,42 0,9 3,17 8,24 -18,5 -30,21 -30,40l441 0z"/>
   <path class="fil2" d="M456 314c-6,0 -11,5 -11,11 0,5 5,10 11,10 5,0 10,-5 10,-10 0,-6 -5,-11 -10,-11zm0 37c-15,0 -26,-12 -26,-26 0,-15 11,-26 26,-26 14,0 26,11 26,26 0,14 -12,26 -26,26z"/>
   <path class="fil2" d="M402 258c-2,0 -4,2 -4,4 0,3 2,5 4,5 3,0 5,-2 5,-5 0,-2 -2,-4 -5,-4zm0 24c-11,0 -20,-9 -20,-20 0,-11 9,-20 20,-20 11,0 21,9 21,20 0,11 -10,20 -21,20z"/>
   <path class="fil2" d="M24 333c-4,0 -8,3 -8,8 0,5 4,8 8,8 5,0 9,-3 9,-8 0,-5 -4,-8 -9,-8zm0 32c-13,0 -24,-11 -24,-24 0,-13 11,-24 24,-24 14,0 24,11 24,24 0,13 -10,24 -24,24z"/>
   <path class="fil2" d="M74 254c-7,0 -13,6 -13,13 0,7 6,12 13,12 7,0 12,-5 12,-12 0,-7 -5,-13 -12,-13zm0 41c-16,0 -29,-13 -29,-28 0,-16 13,-29 29,-29 15,0 28,13 28,29 0,15 -13,28 -28,28z"/>
   <path class="fil2" d="M471 444l-16 0c0,-11 -5,-21 -13,-27l-7 -5 5 -6c4,-6 7,-13 7,-20 0,-18 -15,-33 -33,-33 -18,0 -33,15 -33,33l0 2 1 7 -8 1c-6,1 -12,5 -16,10l-4 8 -7 -5c-12,-9 -29,-7 -39,4l-5 6 -6 -5c-3,-3 -7,-6 -14,-6 -1,0 -2,0 -3,1l-11 1 2 -10c0,-1 0,-2 0,-3 0,-10 -7,-18 -17,-18 -10,0 -18,8 -18,18l0 2 2 13 -13 -5c-11,-4 -24,1 -30,12l-4 9 -8 -7c-5,-5 -13,-4 -18,1l-11 13 -3 -17c-2,-11 -13,-18 -23,-17l-13 2 4 -12c1,-4 2,-8 2,-11 0,-19 -16,-34 -35,-34 -19,0 -34,15 -34,34 0,7 2,14 6,19l6 9 -10 3c-15,5 -25,18 -25,33l-15 0c0,-19 10,-36 27,-44 -3,-6 -5,-13 -5,-20 0,-28 23,-50 50,-50 28,0 50,22 50,50 0,2 0,4 0,6 11,1 21,8 27,18 7,-3 16,-3 23,0 9,-10 22,-15 35,-14 3,-15 16,-27 33,-27 17,0 31,13 33,30 5,0 10,2 14,4 14,-11 33,-13 49,-5 4,-5 9,-8 16,-10 2,-25 23,-44 48,-44 27,0 48,21 48,48 0,8 -2,16 -5,23 9,9 14,22 14,35z"/>
  </g>
 </g>
</svg>
