<?xml version="1.0" encoding="UTF-8"?>
<!DOCTYPE svg PUBLIC "-//W3C//DTD SVG 1.1//EN" "http://www.w3.org/Graphics/SVG/1.1/DTD/svg11.dtd">
<!-- Creator: CorelDRAW X7 -->
<svg xmlns="http://www.w3.org/2000/svg" xml:space="preserve" width="21.9193mm" height="21.7289mm" version="1.1" style="shape-rendering:geometricPrecision; text-rendering:geometricPrecision; image-rendering:optimizeQuality; fill-rule:evenodd; clip-rule:evenodd"
viewBox="0 0 1426 1414"
 xmlns:xlink="http://www.w3.org/1999/xlink">
 <defs>
  <style type="text/css">
   <![CDATA[
    .fil2 {fill:#009639}
    .fil3 {fill:#80D990}
    .fil1 {fill:#C5FACF}
    .fil0 {fill:#EB6631}
   ]]>
  </style>
 </defs>
 <g id="Слой_x0020_1">
  <metadata id="CorelCorpID_0Corel-Layer"/>
  <g id="_2369159554912">
   <path class="fil0" d="M539 597c0,21 -17,38 -39,38 -21,0 -38,-17 -38,-38 0,-22 17,-39 38,-39 22,0 39,17 39,39z"/>
   <path class="fil0" d="M456 345c0,21 -17,39 -39,39 -21,0 -38,-18 -38,-39 0,-21 17,-39 38,-39 22,0 39,18 39,39z"/>
   <path class="fil0" d="M443 58c0,32 -26,58 -58,58 -32,0 -57,-26 -57,-58 0,-32 25,-58 57,-58 32,0 58,26 58,58z"/>
   <path class="fil0" d="M161 412c0,38 -30,68 -67,68 -37,0 -67,-30 -67,-68 0,-37 30,-67 67,-67 37,0 67,30 67,67z"/>
   <path class="fil1" d="M1400 1414c0,-380 -307,-688 -687,-688 -380,0 -687,308 -687,688l1374 0z"/>
   <path class="fil2" d="M1426 1414l-51 0c0,-365 -297,-662 -662,-662 -110,0 -219,28 -315,80l-25 -45c104,-57 221,-86 340,-86 393,0 713,319 713,713z"/>
   <path class="fil2" d="M246 945l-36 -37c30,-30 64,-58 99,-82l29 42c-33,23 -64,49 -92,77z"/>
   <path class="fil2" d="M51 1414l-51 0c0,-156 49,-304 142,-428l41 31c-86,115 -132,252 -132,397z"/>
   <path class="fil2" d="M302 1210c-17,0 -31,14 -31,31 0,17 14,31 31,31 17,0 30,-14 30,-31 0,-17 -13,-31 -30,-31zm0 113c-46,0 -83,-36 -83,-82 0,-45 37,-82 83,-82 45,0 82,37 82,82 0,46 -37,82 -82,82z"/>
   <path class="fil2" d="M517 1245c-7,0 -13,6 -13,14 0,7 6,13 13,13 7,0 13,-6 13,-13 0,-8 -6,-14 -13,-14zm0 78c-36,0 -65,-29 -65,-64 0,-36 29,-65 65,-65 36,0 65,29 65,65 0,35 -29,64 -65,64z"/>
   <path class="fil2" d="M500 937c-39,0 -71,32 -71,72 0,39 32,71 71,71 40,0 72,-32 72,-71 0,-40 -32,-72 -72,-72zm0 195c-68,0 -123,-56 -123,-123 0,-68 55,-124 123,-124 68,0 123,56 123,124 1,67 -55,123 -123,123z"/>
   <polygon class="fil2" points="738,790 687,790 687,75 739,75 "/>
   <polygon class="fil3" points="1324,558 961,558 961,218 1324,218 1255,388 "/>
   <polygon class="fil2" points="1362,584 935,584 935,506 986,506 986,532 1286,532 1228,388 1286,244 1142,244 1142,193 1362,193 1283,388 "/>
   <polygon class="fil3" points="1084,455 721,455 721,116 1084,116 "/>
   <path class="fil2" d="M747 430l312 0 0 -289 -312 0 0 289zm363 51l-415 0 0 -391 415 0 0 391z"/>
  </g>
 </g>
</svg>
