<?xml version="1.0" encoding="UTF-8"?>
<!DOCTYPE svg PUBLIC "-//W3C//DTD SVG 1.1//EN" "http://www.w3.org/Graphics/SVG/1.1/DTD/svg11.dtd">
<!-- Creator: CorelDRAW X7 -->
<svg xmlns="http://www.w3.org/2000/svg" xml:space="preserve" width="20.0349mm" height="21.5237mm" version="1.1" style="shape-rendering:geometricPrecision; text-rendering:geometricPrecision; image-rendering:optimizeQuality; fill-rule:evenodd; clip-rule:evenodd"
viewBox="0 0 1209 1299"
 xmlns:xlink="http://www.w3.org/1999/xlink">
 <defs>
  <style type="text/css">
   <![CDATA[
    .fil4 {fill:#FEFEFE}
    .fil1 {fill:#009639}
    .fil3 {fill:#80D990}
    .fil0 {fill:#C5FACF}
    .fil2 {fill:#EB6631}
    .fil5 {fill:#009639;fill-rule:nonzero}
   ]]>
  </style>
 </defs>
 <g id="Слой_x0020_1">
  <metadata id="CorelCorpID_0Corel-Layer"/>
  <g id="_2369809008240">
   <path class="fil0" d="M987 731c0,143 -117,260 -261,260 -144,0 -260,-117 -260,-260 0,-144 116,-261 260,-261 144,0 261,117 261,261z"/>
   <path class="fil1" d="M726 1014l0 -46c131,0 238,-106 238,-238 0,-131 -107,-237 -238,-237l0 -46c156,0 283,127 283,283 0,157 -127,284 -283,284z"/>
   <path class="fil2" d="M923 256c0,14 -12,26 -26,26 -14,0 -25,-12 -25,-26 0,-14 11,-25 25,-25 14,0 26,11 26,25z"/>
   <path class="fil2" d="M1208 395c0,17 -14,30 -31,30 -17,0 -31,-13 -31,-30 0,-17 14,-31 31,-31 17,0 31,14 31,31z"/>
   <path class="fil2" d="M780 49c0,18 -15,33 -34,33 -18,0 -33,-15 -33,-33 0,-19 15,-34 33,-34 19,0 34,15 34,34z"/>
   <path class="fil2" d="M1186 99c0,28 -23,51 -51,51 -28,0 -51,-23 -51,-51 0,-28 23,-51 51,-51 28,0 51,23 51,51z"/>
   <polygon class="fil1" points="940,466 901,443 964,335 1003,358 "/>
   <polygon class="fil1" points="1053,589 1031,549 1086,519 1108,558 "/>
   <polygon class="fil1" points="788,381 743,375 752,312 797,319 "/>
   <polygon class="fil1" points="765,1148 754,1086 798,1078 809,1139 "/>
   <polygon class="fil1" points="1208,756 1083,754 1084,709 1209,711 "/>
   <polygon class="fil1" points="1070,943 1024,911 1050,874 1097,906 "/>
   <polygon class="fil1" points="956,1129 896,1019 936,997 996,1107 "/>
   <path class="fil3" d="M160 596l-10 0c-16,0 -29,-14 -29,-90l-29 -243c-5,-37 14,-73 46,-93 14,-7 24,-15 24,-15 -94,-58 -73,-122 -72,-130l1 0c46,67 289,36 432,58 34,5 60,32 65,66l3 26c28,0 51,23 51,51l-39 340c0,16 -13,30 -29,30l-414 0z"/>
   <path class="fil1" d="M114 70c8,24 29,46 60,66l30 18 -29 20c0,0 -11,8 -25,16 -25,15 -39,42 -36,71l29 242c0,60 8,70 9,71l8 -1 414 0c3,0 6,-3 6,-7l39 -343c0,-12 -12,-25 -28,-25l-20 0 -6 -46c-3,-24 -21,-43 -46,-47 -48,-7 -110,-8 -170,-9 -96,-2 -182,-4 -235,-26zm460 548l-424 0c-52,0 -52,-73 -52,-112l-29 -240c-5,-44 15,-88 53,-112 -62,-51 -61,-104 -54,-133l5 -21 30 5 7 7c23,34 143,36 240,38 61,1 125,2 176,10 44,7 79,42 84,86l2 10c30,8 53,37 53,70l-39 343c0,26 -24,49 -52,49z"/>
   <path class="fil4" d="M670 492c0,18 -15,33 -33,33 -18,0 -32,-15 -32,-33l0 -31c0,-18 14,-32 32,-32 18,0 33,14 33,32l0 31z"/>
   <path class="fil1" d="M637 451c-5,0 -9,5 -9,10l0 31c0,6 4,10 9,10 6,0 10,-4 10,-10l0 -31c0,-5 -4,-10 -10,-10zm0 96c-30,0 -55,-24 -55,-55l0 -31c0,-30 25,-55 55,-55 31,0 55,25 55,55l0 31c0,31 -24,55 -55,55z"/>
   <path class="fil4" d="M122 492c0,18 -14,33 -32,33 -18,0 -32,-15 -32,-33l0 -31c0,-18 14,-32 32,-32 18,0 32,14 32,32l0 31z"/>
   <path class="fil1" d="M90 451c-5,0 -10,5 -10,10l0 31c0,6 5,10 10,10 5,0 10,-4 10,-10l0 -31c0,-5 -5,-10 -10,-10zm0 96c-30,0 -55,-24 -55,-55l0 -31c0,-30 25,-55 55,-55 30,0 55,25 55,55l0 31c0,31 -25,55 -55,55z"/>
   <path class="fil3" d="M713 1299l0 -213c0,-163 -155,-296 -345,-296 -190,0 -345,133 -345,296l0 213 690 0z"/>
   <path class="fil1" d="M736 1299l-46 0 0 -213c0,-151 -144,-273 -322,-273 -178,0 -323,122 -323,273l0 213 -45 0 0 -213c0,-176 165,-319 368,-319 203,0 368,143 368,319l0 213z"/>
   <polygon class="fil1" points="241,1299 195,1299 195,1065 241,1065 "/>
   <polygon class="fil1" points="543,1299 497,1299 497,1065 543,1065 "/>
   <path class="fil4" d="M355 910l0 0c-35,0 -64,-29 -64,-65l0 -145c0,-31 25,-56 55,-56l19 0c30,0 55,25 55,56l0 145c0,36 -29,65 -65,65z"/>
   <path class="fil1" d="M346 667c-18,0 -32,15 -32,33l0 145c0,23 18,42 41,42 23,0 42,-19 42,-42l0 -145c0,-18 -14,-33 -32,-33l-19 0zm9 265c-48,0 -87,-39 -87,-87l0 -145c0,-43 35,-79 78,-79l19 0c43,0 78,36 78,79l0 145c0,48 -40,87 -88,87z"/>
   <path class="fil4" d="M361 782l0 0c-135,0 -246,-110 -246,-245l0 -167c0,-135 111,-132 246,-132 135,0 245,-3 245,132l0 167c0,135 -110,245 -245,245z"/>
   <path class="fil1" d="M344 261c-59,0 -114,1 -151,15 -27,11 -55,30 -55,94l0 167c0,123 100,223 223,223 123,0 222,-100 222,-223l0 -167c0,-64 -27,-83 -54,-94 -39,-15 -98,-15 -160,-15l-17 0c-3,0 -6,0 -8,0zm17 544c-148,0 -268,-120 -268,-268l0 -167c0,-70 27,-115 83,-136 47,-18 110,-18 176,-18l17 0c67,0 129,0 176,18 56,21 84,66 84,136l0 167c0,148 -120,268 -268,268z"/>
   <path class="fil5" d="M685 611c0,-3 1,-5 3,-7 2,-2 4,-3 7,-3l95 0c26,0 48,7 65,20 17,14 26,34 26,60 0,18 -4,33 -12,45 -8,12 -19,21 -33,27 -14,6 -29,9 -46,9l-69 0 0 19 81 0c3,0 5,1 7,3 1,1 2,3 2,6l0 17c0,2 -1,5 -2,6 -2,2 -4,2 -7,2l-81 0 0 40c0,3 -1,5 -3,7 -2,2 -5,3 -8,3l-15 0c-3,0 -5,-1 -7,-3 -2,-2 -3,-4 -3,-7l0 -40 -30 0c-2,0 -4,0 -6,-2 -1,-1 -2,-4 -2,-6l0 -17c0,-3 1,-5 2,-6 2,-2 4,-3 6,-3l30 0 0 -19 -30 0c-2,0 -4,0 -6,-2 -1,-1 -2,-3 -2,-6l0 -17c0,-3 1,-5 2,-6 2,-2 4,-2 6,-2l30 0 0 -118zm103 118c18,0 33,-4 42,-12 10,-8 15,-20 15,-36 0,-31 -19,-46 -57,-46l-67 0 0 94 67 0z"/>
  </g>
 </g>
</svg>
