<?xml version="1.0" encoding="UTF-8"?>
<!DOCTYPE svg PUBLIC "-//W3C//DTD SVG 1.1//EN" "http://www.w3.org/Graphics/SVG/1.1/DTD/svg11.dtd">
<!-- Creator: CorelDRAW X7 -->
<svg xmlns="http://www.w3.org/2000/svg" xml:space="preserve" width="18.7136mm" height="18.7138mm" version="1.1" style="shape-rendering:geometricPrecision; text-rendering:geometricPrecision; image-rendering:optimizeQuality; fill-rule:evenodd; clip-rule:evenodd"
viewBox="0 0 1106 1106"
 xmlns:xlink="http://www.w3.org/1999/xlink">
 <defs>
  <style type="text/css">
   <![CDATA[
    .fil1 {fill:#FEFEFE}
    .fil0 {fill:url(#id0)}
   ]]>
  </style>
  <linearGradient id="id0" gradientUnits="userSpaceOnUse" x1="90.2001" y1="250.194" x2="1015.38" y2="855.383">
   <stop offset="0" style="stop-opacity:1; stop-color:#FBC25C"/>
   <stop offset="0.478431" style="stop-opacity:1; stop-color:#E94785"/>
   <stop offset="1" style="stop-opacity:1; stop-color:#6A4E99"/>
  </linearGradient>
 </defs>
 <g id="Слой_x0020_1">
  <metadata id="CorelCorpID_0Corel-Layer"/>
  <path class="fil0" d="M975 910c-197,233 -546,262 -779,65 -233,-197 -262,-546 -65,-779 197,-233 545,-262 778,-66 234,198 263,546 66,780z"/>
  <g id="_2369808991632">
   <path class="fil1" d="M741 324c-23,0 -42,19 -42,42 0,23 19,42 42,42 23,0 42,-19 42,-42 0,-23 -19,-42 -42,-42z"/>
   <path class="fil1" d="M556 665c-62,0 -112,-50 -112,-112 0,-62 50,-112 112,-112 62,0 112,50 112,112 0,62 -50,112 -112,112zm0 -287c-97,0 -175,78 -175,175 0,96 78,175 175,175 96,0 175,-79 175,-175 0,-97 -79,-175 -175,-175z"/>
   <path class="fil1" d="M411 264c-81,0 -147,66 -147,147l0 284c0,81 66,146 147,146l284 0c81,0 146,-65 146,-146l0 -284c0,-81 -65,-147 -146,-147l-284 0zm284 644l-284 0c-118,0 -214,-96 -214,-213l0 -284c0,-118 96,-214 214,-214l284 0c117,0 213,96 213,214l0 284c0,117 -96,213 -213,213z"/>
  </g>
 </g>
</svg>
