<?xml version="1.0" encoding="UTF-8"?>
<!DOCTYPE svg PUBLIC "-//W3C//DTD SVG 1.1//EN" "http://www.w3.org/Graphics/SVG/1.1/DTD/svg11.dtd">
<!-- Creator: CorelDRAW X7 -->
<svg xmlns="http://www.w3.org/2000/svg" xml:space="preserve" width="24.8728mm" height="27.645mm" version="1.1" style="shape-rendering:geometricPrecision; text-rendering:geometricPrecision; image-rendering:optimizeQuality; fill-rule:evenodd; clip-rule:evenodd"
viewBox="0 0 535 594"
 xmlns:xlink="http://www.w3.org/1999/xlink">
 <defs>
  <style type="text/css">
   <![CDATA[
    .fil0 {fill:#A1CBED}
   ]]>
  </style>
 </defs>
 <g id="Слой_x0020_1">
  <metadata id="CorelCorpID_0Corel-Layer"/>
  <path class="fil0" d="M350 381c6,-4 12,-9 17,-15l133 165 -36 29 -133 -165c6,-4 13,-9 19,-14zm-154 19c-50,-5 -94,-29 -126,-68 -31,-39 -46,-87 -40,-137 5,-49 29,-94 67,-125 35,-28 76,-42 118,-42 54,0 108,24 144,69 32,39 46,87 41,137 -5,49 -29,94 -68,125 -38,32 -87,46 -136,41zm266 194c3,0 7,-1 9,-3l58 -47c3,-3 5,-6 5,-10 1,-4 0,-7 -3,-10l-145 -179c23,-31 38,-68 42,-108 6,-57 -10,-113 -47,-158 -74,-92 -210,-106 -302,-31 -44,36 -72,87 -78,145 -6,57 11,113 47,157 36,45 88,72 145,78 7,1 15,1 22,1 32,0 62,-6 90,-20l146 180c3,3 7,5 11,5z"/>
  <path class="fil0" d="M296 315c-55,44 -136,36 -181,-19 -22,-27 -32,-60 -28,-95 3,-34 20,-65 47,-86 23,-19 51,-29 81,-29 4,0 9,0 13,1 34,3 65,20 87,47 44,55 36,136 -19,181zm41 -199c-27,-33 -64,-53 -106,-58 -42,-4 -83,8 -115,35 -33,26 -53,64 -58,105 -4,42 8,83 35,116 31,38 76,58 122,58 35,0 70,-12 99,-35 67,-55 77,-154 23,-221z"/>
 </g>
</svg>
