<?xml version="1.0" encoding="UTF-8"?>
<!DOCTYPE svg PUBLIC "-//W3C//DTD SVG 1.1//EN" "http://www.w3.org/Graphics/SVG/1.1/DTD/svg11.dtd">
<!-- Creator: CorelDRAW X7 -->
<svg xmlns="http://www.w3.org/2000/svg" xml:space="preserve" width="60.278mm" height="60.278mm" version="1.1" style="shape-rendering:geometricPrecision; text-rendering:geometricPrecision; image-rendering:optimizeQuality; fill-rule:evenodd; clip-rule:evenodd"
viewBox="0 0 2332 2332"
 xmlns:xlink="http://www.w3.org/1999/xlink">
 <defs>
  <style type="text/css">
   <![CDATA[
    .str0 {stroke:#009639;stroke-width:54.586}
    .fil3 {fill:none}
    .fil0 {fill:#009639}
    .fil2 {fill:#FEFEFE;fill-rule:nonzero}
    .fil1 {fill:#009639;fill-rule:nonzero}
   ]]>
  </style>
 </defs>
 <g id="Слой_x0020_1">
  <metadata id="CorelCorpID_0Corel-Layer"/>
  <g id="_2369808996592">
   <path class="fil0" d="M1291 1041l0 -592c-130,29 -238,78 -325,147 -111,87 -190,207 -241,357l-200 -67c64,-190 166,-343 310,-456 143,-113 325,-184 549,-211l119 -14 0 836 -212 0z"/>
   <path class="fil0" d="M545 1291c15,26 32,51 51,75 87,111 207,190 357,240l-67 201c-190,-64 -343,-166 -456,-310 -49,-62 -90,-130 -122,-206l237 0zm-312 -250c-6,-30 -10,-62 -14,-94l-14 -118 947 0 0 212 -919 0z"/>
   <path class="fil0" d="M1041 1291l0 592c130,-29 238,-79 325,-147 111,-87 190,-208 240,-357l201 67c-64,189 -166,343 -310,456 -143,113 -325,184 -550,211l-118 14 0 -836 212 0z"/>
   <path class="fil0" d="M1186 1291l697 0 0 0 216 0c5,30 10,61 14,93l14 119 -941 0 0 -212zm601 -250c-16,-27 -33,-52 -51,-75 -87,-111 -208,-190 -357,-241l67 -200c189,64 343,166 456,310 48,61 89,130 122,206l-237 0z"/>
   <polygon class="fil1" points="255,1258 255,1077 305,1077 305,1215 345,1215 345,1077 394,1077 394,1215 434,1215 434,1077 483,1077 483,1258 "/>
   <polygon id="1" class="fil1" points="521,1258 521,1077 570,1077 570,1144 580,1144 626,1077 680,1077 617,1165 686,1258 626,1258 578,1189 570,1189 570,1258 "/>
   <path id="2" class="fil1" d="M791 1260c-13,0 -26,-3 -37,-8 -11,-5 -20,-12 -28,-21 -8,-9 -14,-19 -19,-30 -4,-11 -6,-22 -6,-34 0,-12 2,-23 7,-34 4,-11 11,-21 19,-29 8,-9 18,-16 29,-21 11,-5 23,-7 36,-7 14,0 26,3 37,8 12,5 21,12 29,21 8,9 14,19 18,29 5,11 7,23 7,34 0,12 -3,24 -7,34 -4,11 -11,21 -19,30 -8,8 -18,15 -29,20 -11,5 -23,8 -37,8zm-40 -92c0,6 1,12 2,18 2,5 5,10 8,15 3,4 8,8 13,11 5,2 11,3 18,3 7,0 13,-1 18,-4 6,-2 10,-6 13,-11 3,-4 6,-10 7,-15 2,-6 3,-12 3,-18 0,-6 -1,-12 -3,-17 -1,-6 -4,-11 -7,-16 -4,-4 -8,-8 -13,-10 -5,-3 -11,-4 -18,-4 -7,0 -13,1 -19,4 -5,3 -9,7 -12,11 -4,5 -6,10 -8,15 -1,6 -2,12 -2,18z"/>
   <path id="3" class="fil1" d="M1018 1258l0 -137 -35 0 -1 24c-1,23 -3,42 -6,57 -3,15 -8,27 -15,35 -6,8 -14,14 -24,18 -10,3 -22,5 -36,5l0 -43c5,0 10,-1 14,-3 4,-2 8,-6 11,-12 2,-6 5,-15 6,-26 2,-12 3,-27 4,-46l2 -53 129 0 0 181 -49 0z"/>
   <path id="4" class="fil1" d="M1145 1077l55 0 57 181 -50 0 -9 -35 -50 0 -10 35 -50 0 57 -181zm45 113l-17 -64 -17 64 34 0z"/>
   <path id="5" class="fil1" d="M1392 1258l0 -181 77 0c9,0 17,2 24,6 8,3 14,8 19,14 6,6 10,13 13,20 3,8 4,15 4,23 0,11 -2,21 -7,30 -5,10 -12,18 -21,24 -9,6 -19,9 -31,9l-29 0 0 55 -49 0zm49 -99l26 0c2,0 4,0 6,-1 2,-2 3,-4 4,-7 2,-2 2,-6 2,-11 0,-5 0,-9 -2,-12 -1,-3 -3,-5 -5,-6 -2,-1 -4,-1 -6,-1l-25 0 0 38z"/>
   <polygon id="6" class="fil1" points="1683,1215 1683,1258 1555,1258 1555,1077 1680,1077 1680,1121 1604,1121 1604,1146 1669,1146 1669,1186 1604,1186 1604,1215 "/>
   <path id="7" class="fil1" d="M1702 1166c0,-11 2,-22 6,-33 4,-10 10,-20 18,-28 8,-9 17,-16 29,-21 11,-5 24,-8 38,-8 17,0 32,4 45,11 13,7 22,17 29,28l-38 28c-2,-6 -5,-11 -9,-14 -5,-3 -9,-6 -14,-7 -5,-1 -9,-2 -14,-2 -7,0 -13,1 -18,4 -5,3 -9,7 -13,11 -3,5 -5,10 -7,16 -2,5 -2,11 -2,17 0,6 1,12 2,18 2,5 5,11 8,15 4,5 8,8 13,11 6,2 11,3 18,3 4,0 9,0 14,-2 4,-1 9,-3 12,-7 4,-3 7,-7 9,-13l40 25c-3,8 -9,16 -17,22 -8,6 -18,11 -28,15 -11,3 -21,5 -31,5 -14,0 -26,-3 -37,-8 -11,-6 -20,-13 -28,-22 -8,-9 -14,-19 -19,-30 -4,-11 -6,-22 -6,-34z"/>
   <path id="8" class="fil1" d="M1973 1260c-14,0 -26,-3 -38,-8 -11,-5 -20,-12 -28,-21 -8,-9 -14,-19 -19,-30 -4,-11 -6,-22 -6,-34 0,-12 2,-23 7,-34 4,-11 11,-21 19,-29 8,-9 18,-16 29,-21 11,-5 23,-7 37,-7 13,0 26,3 37,8 11,5 20,12 28,21 8,9 14,19 18,29 5,11 7,23 7,34 0,12 -2,24 -7,34 -4,11 -11,21 -19,30 -8,8 -18,15 -29,20 -11,5 -23,8 -36,8zm-41 -92c0,6 1,12 2,18 2,5 5,10 8,15 3,4 8,8 13,11 5,2 11,3 18,3 7,0 13,-1 18,-4 6,-2 10,-6 13,-11 3,-4 6,-10 7,-15 2,-6 3,-12 3,-18 0,-6 -1,-12 -3,-17 -1,-6 -4,-11 -7,-16 -4,-4 -8,-8 -13,-10 -5,-3 -11,-4 -18,-4 -7,0 -13,1 -18,4 -6,3 -10,7 -13,11 -4,5 -6,10 -8,15 -1,6 -2,12 -2,18z"/>
   <polygon class="fil2" points="1242,1446 1242,1347 1322,1347 1322,1446 1303,1446 1303,1364 1261,1364 1261,1446 "/>
   <polygon id="1" class="fil2" points="1415,1429 1415,1446 1346,1446 1346,1347 1413,1347 1413,1364 1365,1364 1365,1388 1407,1388 1407,1403 1365,1403 1365,1429 "/>
   <polygon id="2" class="fil2" points="1507,1364 1476,1364 1476,1446 1457,1446 1457,1364 1425,1364 1425,1347 1507,1347 "/>
   <polygon id="3" class="fil2" points="1592,1429 1592,1446 1523,1446 1523,1347 1591,1347 1591,1364 1542,1364 1542,1388 1584,1388 1584,1403 1542,1403 1542,1429 "/>
   <path id="4" class="fil2" d="M1611 1446l0 -99 41 0c5,0 9,1 13,3 4,2 7,4 10,8 3,3 5,6 6,10 2,4 3,8 3,12 0,6 -2,11 -4,16 -3,5 -6,9 -11,12 -4,3 -10,5 -16,5l-23 0 0 33 -19 0zm19 -50l22 0c2,0 4,-1 6,-2 2,-1 4,-3 5,-6 1,-2 1,-5 1,-8 0,-3 0,-6 -2,-9 -1,-2 -2,-4 -4,-5 -2,-1 -5,-2 -7,-2l-21 0 0 32z"/>
   <path id="5" class="fil2" d="M1701 1446l0 -99 71 0 0 17 -52 0 0 24 27 0c11,0 19,2 25,7 5,5 8,12 8,21 0,6 -1,11 -3,16 -3,4 -6,7 -11,10 -5,3 -11,4 -18,4l-47 0zm19 -17l25 0c4,0 7,0 9,-2 2,-1 4,-3 5,-5 1,-2 2,-4 2,-6 0,-3 -1,-5 -2,-7 -1,-2 -2,-4 -4,-5 -3,-1 -6,-2 -10,-2l-25 0 0 27z"/>
   <path id="6" class="fil2" d="M1807 1446l0 -16 8 0c2,0 4,-1 5,-2 1,-1 3,-2 3,-4l3 -5 -39 -72 21 0 26 53 23 -53 20 0 -39 86c-2,5 -5,8 -8,10 -3,2 -7,3 -12,3l-11 0z"/>
   <path id="7" class="fil2" d="M1890 1446l0 -99 42 0c4,0 9,1 12,3 4,2 7,4 10,8 3,3 5,6 7,10 1,4 2,8 2,12 0,6 -1,11 -4,16 -2,5 -6,9 -10,12 -5,3 -10,5 -17,5l-23 0 0 33 -19 0zm19 -50l22 0c3,0 5,-1 7,-2 1,-1 3,-3 4,-6 1,-2 2,-5 2,-8 0,-3 -1,-6 -2,-9 -1,-2 -3,-4 -5,-5 -2,-1 -4,-2 -6,-2l-22 0 0 32z"/>
   <polygon id="8" class="fil2" points="1981,1446 1981,1347 2041,1347 2041,1364 2000,1364 2000,1446 "/>
  </g>
  <circle class="fil3 str0" cx="1166" cy="1166" r="1139"/>
 </g>
</svg>
