<?xml version="1.0" encoding="UTF-8"?>
<!DOCTYPE svg PUBLIC "-//W3C//DTD SVG 1.1//EN" "http://www.w3.org/Graphics/SVG/1.1/DTD/svg11.dtd">
<!-- Creator: CorelDRAW X7 -->
<svg xmlns="http://www.w3.org/2000/svg" xml:space="preserve" width="60.278mm" height="60.278mm" version="1.1" style="shape-rendering:geometricPrecision; text-rendering:geometricPrecision; image-rendering:optimizeQuality; fill-rule:evenodd; clip-rule:evenodd"
viewBox="0 0 17821 17821"
 xmlns:xlink="http://www.w3.org/1999/xlink">
 <defs>
  <style type="text/css">
   <![CDATA[
    .str0 {stroke:#FEFEFE;stroke-width:417.194}
    .fil3 {fill:none}
    .fil0 {fill:#FEFEFE}
    .fil1 {fill:#FEFEFE;fill-rule:nonzero}
    .fil2 {fill:#009639;fill-rule:nonzero}
   ]]>
  </style>
 </defs>
 <g id="Слой_x0020_1">
  <metadata id="CorelCorpID_0Corel-Layer"/>
  <g id="_2369878952960">
   <path class="fil0" d="M9865 7955l0 -4522c-995,221 -1819,598 -2484,1122 -847,667 -1452,1584 -1837,2729l-1532 -513c488,-1448 1268,-2621 2369,-3488 1092,-860 2482,-1406 4200,-1610l904 -107 0 6389 -1620 0z"/>
   <path class="fil0" d="M4162 9865c120,204 251,395 393,575 667,847 1584,1452 2729,1837l-513 1532c-1449,-488 -2621,-1268 -3488,-2369 -369,-469 -681,-993 -932,-1575l1811 0zm-2381 -1910c-43,-232 -79,-470 -108,-714l-107 -905 7240 0 0 1619 -7025 0z"/>
   <path class="fil0" d="M7956 9865l0 4524c995,-221 1820,-599 2484,-1123 847,-667 1452,-1584 1837,-2728l1532 512c-488,1449 -1268,2621 -2369,3488 -1091,860 -2482,1406 -4199,1610l-905 108 0 -6391 1620 0z"/>
   <path class="fil0" d="M9067 9865l5322 0 0 0 1651 0c43,232 79,470 108,716l108 905 -7189 0 0 -1621zm4591 -1910c-120,-203 -250,-395 -392,-574 -667,-847 -1584,-1452 -2728,-1837l512 -1532c1449,488 2621,1268 3488,2369 369,469 681,993 932,1574l-1812 0z"/>
   <polygon class="fil1" points="1952,9617 1952,8233 2327,8233 2327,9286 2634,9286 2634,8233 3009,8233 3009,9286 3316,9286 3316,8233 3692,8233 3692,9617 "/>
   <polygon id="1" class="fil1" points="3981,9617 3981,8233 4355,8233 4355,8742 4432,8742 4784,8233 5197,8233 4715,8902 5241,9617 4786,9617 4416,9087 4355,9087 4355,9617 "/>
   <path id="2" class="fil1" d="M5966 9627c-104,0 -199,-20 -283,-60 -85,-39 -158,-92 -219,-159 -61,-67 -108,-143 -141,-227 -33,-83 -49,-170 -49,-260 0,-92 17,-180 52,-263 35,-83 83,-157 146,-223 62,-66 136,-117 221,-155 86,-38 179,-57 281,-57 104,0 198,20 283,60 85,40 157,93 218,161 60,67 107,143 139,227 33,84 50,170 50,258 0,91 -18,178 -52,261 -34,83 -82,158 -144,223 -62,66 -136,118 -221,156 -85,39 -178,58 -281,58zm-310 -702c0,47 6,92 19,136 13,43 32,82 58,117 25,34 58,61 97,81 39,21 86,31 140,31 54,0 101,-11 140,-32 40,-20 73,-49 98,-84 25,-36 43,-76 56,-119 12,-44 18,-88 18,-134 0,-46 -7,-91 -19,-134 -13,-43 -32,-82 -58,-116 -26,-35 -59,-62 -98,-81 -40,-20 -87,-29 -139,-29 -54,0 -101,10 -140,31 -39,21 -72,48 -97,83 -26,34 -45,73 -57,117 -12,43 -18,88 -18,133z"/>
   <path id="3" class="fil1" d="M7698 9617l0 -1052 -266 0 -7 187c-8,176 -24,322 -49,435 -25,114 -62,203 -111,267 -49,65 -112,110 -188,137 -77,26 -169,40 -277,40l0 -328c44,0 82,-8 113,-24 32,-16 58,-47 79,-94 21,-46 38,-113 50,-200 12,-88 21,-203 26,-346l16 -406 990 0 0 1384 -376 0z"/>
   <path id="4" class="fil1" d="M8672 8233l420 0 435 1384 -381 0 -71 -271 -387 0 -70 271 -384 0 438 -1384zm337 860l-127 -487 -127 487 254 0z"/>
   <path id="5" class="fil1" d="M10555 9617l0 -1384 589 0c67,0 129,14 185,41 57,27 106,64 147,110 41,46 73,98 95,155 23,57 34,115 34,174 0,82 -19,159 -57,232 -38,72 -91,132 -158,178 -67,46 -146,69 -236,69l-224 0 0 425 -375 0zm375 -756l199 0c15,0 30,-5 44,-14 14,-9 26,-24 36,-47 9,-22 14,-51 14,-87 0,-39 -5,-69 -16,-91 -11,-21 -24,-36 -41,-45 -16,-8 -31,-12 -47,-12l-189 0 0 296z"/>
   <polygon id="6" class="fil1" points="12777,9286 12777,9617 11802,9617 11802,8233 12759,8233 12759,8565 12177,8565 12177,8760 12675,8760 12675,9067 12177,9067 12177,9286 "/>
   <path id="7" class="fil1" d="M12902 8912c0,-85 16,-168 47,-249 32,-81 78,-155 138,-221 60,-66 134,-119 221,-159 86,-40 184,-60 294,-60 131,0 245,28 343,83 97,56 170,129 217,220l-287 206c-17,-45 -41,-80 -72,-105 -32,-25 -66,-42 -102,-52 -37,-9 -72,-14 -107,-14 -54,0 -101,10 -140,32 -39,21 -71,50 -96,85 -25,35 -44,74 -56,117 -12,42 -18,85 -18,128 0,48 7,94 21,139 14,44 34,83 61,118 27,34 61,61 100,80 39,20 83,30 132,30 34,0 70,-6 106,-17 36,-11 68,-29 98,-53 29,-25 52,-58 67,-100l307 185c-27,68 -72,126 -135,174 -63,48 -134,85 -214,110 -80,25 -159,38 -237,38 -102,0 -194,-21 -279,-62 -84,-40 -156,-95 -217,-163 -61,-68 -109,-145 -142,-230 -33,-85 -50,-172 -50,-260z"/>
   <path id="8" class="fil1" d="M14951 9627c-104,0 -199,-20 -284,-60 -84,-39 -157,-92 -218,-159 -61,-67 -108,-143 -141,-227 -33,-83 -49,-170 -49,-260 0,-92 17,-180 52,-263 34,-83 83,-157 145,-223 63,-66 136,-117 222,-155 85,-38 179,-57 280,-57 104,0 199,20 284,60 84,40 157,93 217,161 61,67 107,143 140,227 33,84 49,170 49,258 0,91 -17,178 -51,261 -34,83 -82,158 -144,223 -63,66 -136,118 -221,156 -85,39 -179,58 -281,58zm-311 -702c0,47 7,92 20,136 12,43 32,82 57,117 26,34 59,61 98,81 39,21 85,31 139,31 54,0 101,-11 141,-32 40,-20 72,-49 97,-84 26,-36 44,-76 56,-119 13,-44 19,-88 19,-134 0,-46 -7,-91 -20,-134 -12,-43 -32,-82 -57,-116 -26,-35 -59,-62 -99,-81 -40,-20 -86,-29 -138,-29 -54,0 -101,10 -140,31 -39,21 -72,48 -98,83 -25,34 -44,73 -56,117 -13,43 -19,88 -19,133z"/>
   <polygon class="fil2" points="9491,11050 9491,10297 10101,10297 10101,11050 9956,11050 9956,10425 9636,10425 9636,11050 "/>
   <polygon id="1" class="fil2" points="10813,10922 10813,11050 10290,11050 10290,10297 10803,10297 10803,10425 10436,10425 10436,10607 10753,10607 10753,10726 10436,10726 10436,10922 "/>
   <polygon id="2" class="fil2" points="11520,10425 11279,10425 11279,11050 11134,11050 11134,10425 10893,10425 10893,10297 11520,10297 "/>
   <polygon id="3" class="fil2" points="12166,10922 12166,11050 11643,11050 11643,10297 12156,10297 12156,10425 11789,10425 11789,10607 12106,10607 12106,10726 11789,10726 11789,10922 "/>
   <path id="4" class="fil2" d="M12310 11050l0 -753 319 0c35,0 66,7 95,21 29,14 55,33 76,57 22,25 39,51 51,81 12,30 18,60 18,91 0,43 -10,83 -30,121 -20,38 -47,70 -82,94 -34,24 -75,36 -123,36l-178 0 0 252 -146 0zm146 -381l170 0c17,0 33,-5 47,-15 15,-9 26,-24 34,-43 9,-18 13,-40 13,-64 0,-26 -5,-48 -14,-67 -10,-18 -22,-32 -37,-41 -16,-9 -32,-14 -50,-14l-163 0 0 244z"/>
   <path id="5" class="fil2" d="M13002 11050l0 -753 543 0 0 126 -398 0 0 182 205 0c84,0 148,19 190,59 42,40 64,93 64,159 0,45 -10,84 -28,118 -18,34 -46,61 -82,80 -36,19 -81,29 -136,29l-358 0zm145 -126l192 0c29,0 51,-5 68,-15 17,-11 30,-24 37,-40 8,-16 12,-32 12,-50 0,-18 -3,-34 -10,-49 -7,-16 -19,-28 -36,-38 -17,-9 -41,-14 -73,-14l-190 0 0 206z"/>
   <path id="6" class="fil2" d="M13811 11050l0 -121 60 0c18,0 32,-4 41,-11 9,-8 17,-20 24,-37l17 -36 -299 -548 161 0 203 400 176 -400 154 0 -300 653c-19,37 -40,63 -63,78 -23,15 -54,22 -93,22l-81 0z"/>
   <path id="7" class="fil2" d="M14445 11050l0 -753 320 0c34,0 66,7 95,21 29,14 54,33 76,57 21,25 38,51 50,81 12,30 18,60 18,91 0,43 -10,83 -29,121 -20,38 -47,70 -82,94 -35,24 -76,36 -123,36l-178 0 0 252 -147 0zm147 -381l169 0c18,0 34,-5 48,-15 14,-9 26,-24 34,-43 9,-18 13,-40 13,-64 0,-26 -5,-48 -15,-67 -9,-18 -22,-32 -37,-41 -15,-9 -31,-14 -49,-14l-163 0 0 244z"/>
   <polygon id="8" class="fil2" points="15138,11050 15138,10297 15600,10297 15600,10425 15283,10425 15283,11050 "/>
  </g>
  <circle class="fil3 str0" cx="8911" cy="8911" r="8702"/>
 </g>
</svg>
