<?xml version="1.0" encoding="UTF-8"?>
<!DOCTYPE svg PUBLIC "-//W3C//DTD SVG 1.1//EN" "http://www.w3.org/Graphics/SVG/1.1/DTD/svg11.dtd">
<!-- Creator: CorelDRAW X7 -->
<svg xmlns="http://www.w3.org/2000/svg" xml:space="preserve" width="18.6964mm" height="18.6965mm" version="1.1" style="shape-rendering:geometricPrecision; text-rendering:geometricPrecision; image-rendering:optimizeQuality; fill-rule:evenodd; clip-rule:evenodd"
viewBox="0 0 257 257"
 xmlns:xlink="http://www.w3.org/1999/xlink">
 <defs>
  <style type="text/css">
   <![CDATA[
    .fil1 {fill:#FEFEFE}
    .fil0 {fill:#5076A6}
   ]]>
  </style>
 </defs>
 <g id="Слой_x0020_1">
  <metadata id="CorelCorpID_0Corel-Layer"/>
  <g id="_2369808987504">
   <path class="fil0" d="M257 129c0,71 -57,128 -128,128 -71,0 -129,-57 -129,-128 0,-71 58,-129 129,-129 71,0 128,58 128,129z"/>
   <path class="fil1" d="M203 94c-2,-2 -10,-2 -18,-2 -8,0 -16,0 -18,1 -2,0 -6,10 -11,20 -6,10 -13,21 -17,21 -6,0 -5,-18 -4,-31 0,-9 -2,-12 -3,-13 -3,-2 -11,-4 -11,-4 0,0 -26,-2 -29,9 5,1 13,-1 10,33 0,2 -4,16 -16,-3 -3,-5 -14,-33 -18,-33 -13,0 -26,-1 -30,2 -5,2 5,21 22,47 13,22 28,38 52,42 5,1 17,1 21,-1 3,-1 -1,-19 8,-21 4,-1 19,19 25,21 3,2 11,2 19,2 8,0 18,1 19,-5 2,-13 -26,-29 -27,-37 0,-5 10,-16 16,-24 7,-9 14,-21 10,-24z"/>
  </g>
 </g>
</svg>
